<svg xmlns="http://www.w3.org/2000/svg" viewBox="0 0 19 18" role="img" aria-labelledby="title"><title id="title">Radiation shield</title><rect x=".5" y=".5" width="18" height="17" rx="3" fill="#ed2024" stroke="#ffffff" stroke-width=".75"/><rect x="2.5" y="2.5" width="14" height="13" rx="1" fill="#e5e8f1" stroke="#ffffff" stroke-width=".6"/><g><path d="M9.5 3.5L14.5 5.3V8.8C14.5 11.7 12.6 13.7 9.5 14.5C6.4 13.7 4.5 11.7 4.5 8.8V5.3Z" fill="#0f0e09"/><g transform="translate(2.35 2.25) scale(.75)"><g><circle cx="9.5" cy="9" r="1.05" fill="#e76c1a"/><path d="M9.5 7.2A3.4 3.4 0 0 0 6.6 5.5L8 3.6A5.8 5.8 0 0 1 11 3.6L12.4 5.5A3.4 3.4 0 0 0 9.5 7.2Z" fill="#e76c1a"/><path d="M8 10.2A3.4 3.4 0 0 0 5.1 11.9L3.9 9.8A5.8 5.8 0 0 1 5.4 7.2L7.7 8.1A3.4 3.4 0 0 0 8 10.2Z" fill="#e76c1a"/><path d="M11 10.2A3.4 3.4 0 0 1 13.9 11.9L15.1 9.8A5.8 5.8 0 0 0 13.6 7.2L11.3 8.1A3.4 3.4 0 0 1 11 10.2Z" fill="#e76c1a"/></g></g></g></svg>
